<svg xmlns="http://www.w3.org/2000/svg" xmlns:xlink="http://www.w3.org/1999/xlink" version="1.1" width="256" height="256" viewBox="0 0 256 256" xml:space="preserve">

<defs>
</defs>
<g style="stroke: none; stroke-width: 0; stroke-dasharray: none; stroke-linecap: butt; stroke-linejoin: miter; stroke-miterlimit: 10; fill: none; fill-rule: nonzero; opacity: 1;" transform="translate(1.4065934065934016 1.4065934065934016) scale(2.81 2.81)" >
	<path d="M 19.509 10.712 C 29.827 18.459 40.925 34.165 45 42.594 c 4.075 -8.428 15.173 -24.135 25.492 -31.882 C 77.937 5.123 90 0.798 90 14.56 c 0 2.748 -1.576 23.088 -2.5 26.39 c -3.213 11.48 -14.919 14.408 -25.332 12.636 C 80.37 56.684 85 66.945 75 77.206 c -18.991 19.488 -27.296 -4.89 -29.425 -11.136 c -0.39 -1.145 -0.573 -1.681 -0.575 -1.225 c -0.003 -0.456 -0.185 0.08 -0.575 1.225 c -2.128 6.246 -10.433 30.625 -29.425 11.136 C 5 66.945 9.63 56.683 27.832 53.586 C 17.418 55.358 5.712 52.43 2.5 40.95 C 1.576 37.648 0 17.308 0 14.56 C 0 0.798 12.063 5.123 19.509 10.712 L 19.509 10.712 z" style="stroke: none; stroke-width: 1; stroke-dasharray: none; stroke-linecap: butt; stroke-linejoin: miter; stroke-miterlimit: 10; fill: rgb(0,0,0); fill-rule: nonzero; opacity: 1;" transform=" matrix(1 0 0 1 0 0) " stroke-linecap="round" />
</g>
</svg>